<svg width="240" height="240" xmlns="http://www.w3.org/2000/svg" xmlns:xlink="http://www.w3.org/1999/xlink" xml:space="preserve" overflow="hidden"><g transform="translate(-592 -312)"><g><path d="M727 364.145C738.046 364.145 747 355.191 747 344.145 747 333.099 738.046 324.145 727 324.145 715.954 324.145 707 333.099 707 344.145 707 355.191 715.954 364.145 727 364.145ZM727 329.145C735.284 329.145 742 335.861 742 344.145 742 352.429 735.284 359.145 727 359.145 718.716 359.145 712 352.429 712 344.145 712.005 335.861 718.716 329.146 727 329.135Z" fill="#000000" fill-rule="nonzero" fill-opacity="1"/><path d="M694.5 487.575C694.284 488.658 693.802 489.67 693.097 490.52L659.097 531.797C657.772 533.521 655.714 534.521 653.54 534.5 651.903 534.516 650.315 533.943 649.065 532.885 646.049 530.341 645.661 525.838 648.195 522.815L680.695 483.262C680.954 482.949 681.133 482.576 681.215 482.177L686.32 457.232C684.67 455.982 683.257 454.447 682.145 452.7L676.445 480.568 644.333 519.64C640.054 524.78 640.732 532.41 645.85 536.715 650.967 540.974 658.568 540.279 662.828 535.162 662.886 535.092 662.943 535.021 663 534.95L697 493.67C698.228 492.173 699.065 490.393 699.435 488.492L703.36 469.522 698.915 466.32Z" fill="#000000" fill-rule="nonzero" fill-opacity="1"/><path d="M774.165 421.068 750.25 413.17C747.175 406.062 736.778 382 736.263 380.97 732.417 373.964 725.091 369.579 717.1 369.5 713.924 369.502 710.791 370.225 707.935 371.615L673.958 384.967C670.905 386.195 668.483 388.612 667.25 391.663L655.1 420.815C653.877 423.897 653.935 427.341 655.263 430.38 656.513 433.281 658.882 435.554 661.833 436.682 663.283 437.272 664.832 437.579 666.398 437.587 671.398 437.667 675.915 434.61 677.7 429.938L687.25 405.73 692.112 403.878C692.123 403.871 692.137 403.875 692.143 403.885 692.147 403.891 692.148 403.898 692.145 403.905L685.057 438.5C684.269 443.895 685.912 449.361 689.542 453.427L726.5 480.043 726.5 526.75C726.39 533.161 731.122 538.628 737.482 539.438 744.198 540.103 750.182 535.198 750.848 528.482 750.887 528.087 750.907 527.69 750.907 527.292L750.907 473.913C750.957 470.048 749.127 466.401 746 464.13L723.75 447.845 726.477 434.215 727.5 428.815 731.75 406.647C732.052 405.3 731.203 403.964 729.856 403.662 728.508 403.361 727.172 404.209 726.87 405.556 726.859 405.609 726.849 405.663 726.84 405.717L722.648 427.855 718.532 448.43C718.345 449.382 718.725 450.357 719.508 450.93L743.083 468.18C744.895 469.515 745.945 471.647 745.898 473.898L745.898 527C745.961 530.508 743.551 533.578 740.128 534.35 736.22 535.13 732.42 532.595 731.64 528.687 731.548 528.229 731.501 527.763 731.5 527.295L731.5 478.765C731.5 477.963 731.115 477.21 730.465 476.74L692.465 449.358C690.07 447.632 688.909 444.662 689.5 441.77L697.968 400.405C698.245 399.052 697.372 397.731 696.02 397.454 695.555 397.359 695.071 397.398 694.628 397.568L684.43 401.45C683.773 401.701 683.253 402.216 682.995 402.87L673.032 428.145C671.997 430.891 669.331 432.676 666.398 432.587 665.453 432.578 664.519 432.388 663.648 432.025 661.937 431.371 660.563 430.054 659.838 428.372 659.05 426.573 659.011 424.534 659.727 422.705L671.87 393.555C672.59 391.761 674.008 390.338 675.8 389.612L709.968 376.177C712.186 375.082 714.626 374.508 717.1 374.5 723.242 374.562 728.876 377.923 731.85 383.297 732.312 384.263 740.643 403.513 746.12 416.203 746.4 416.852 746.947 417.349 747.62 417.565L772.6 425.815C776.347 427.111 778.358 431.176 777.115 434.94 776.065 437.849 773.33 439.81 770.237 439.87 769.434 439.846 768.637 439.721 767.865 439.5L738.818 429.828C736.904 429.106 735.337 427.683 734.435 425.848L733.537 423.772 732.145 431.133C733.518 432.662 735.242 433.835 737.17 434.55L766.487 444.3C767.708 444.647 768.969 444.834 770.237 444.855 775.44 444.78 780.055 441.496 781.83 436.605 783.995 430.198 780.567 423.248 774.165 421.068Z" fill="#000000" fill-rule="nonzero" fill-opacity="1"/></g></g></svg>