<?xml version="1.0" encoding="UTF-8" standalone="no"?>
<!-- Created with Inkscape (http://www.inkscape.org/) -->

<svg
   width="92.437263mm"
   height="91.552513mm"
   viewBox="0 0 92.437263 91.552513"
   version="1.1"
   id="svg1"
   xml:space="preserve"
   inkscape:version="1.4.2 (ebf0e940, 2025-05-08)"
   sodipodi:docname="bloodpressure.svg"
   inkscape:export-filename="../SVG/bloodpressure.svg"
   inkscape:export-xdpi="96"
   inkscape:export-ydpi="96"
   xmlns:inkscape="http://www.inkscape.org/namespaces/inkscape"
   xmlns:sodipodi="http://sodipodi.sourceforge.net/DTD/sodipodi-0.dtd"
   xmlns="http://www.w3.org/2000/svg"
   xmlns:svg="http://www.w3.org/2000/svg"><sodipodi:namedview
     id="namedview1"
     pagecolor="#ffffff"
     bordercolor="#000000"
     borderopacity="0.25"
     inkscape:showpageshadow="2"
     inkscape:pageopacity="0.0"
     inkscape:pagecheckerboard="0"
     inkscape:deskcolor="#d1d1d1"
     inkscape:document-units="mm"
     inkscape:zoom="1.1490142"
     inkscape:cx="315.05267"
     inkscape:cy="510.87269"
     inkscape:window-width="2128"
     inkscape:window-height="1041"
     inkscape:window-x="0"
     inkscape:window-y="31"
     inkscape:window-maximized="0"
     inkscape:current-layer="layer2"><inkscape:page
       x="0"
       y="0"
       width="92.437263"
       height="91.552513"
       id="page2"
       margin="0"
       bleed="0" /></sodipodi:namedview><defs
     id="defs1"><inkscape:path-effect
       effect="fillet_chamfer"
       id="path-effect1"
       is_visible="true"
       lpeversion="1"
       nodesatellites_param="F,0,0,1,0,0,0,1 @ F,0,0,1,0,2.1166666,0,1 @ F,0,0,1,0,2.1166666,0,1 @ F,0,0,1,0,2.1166666,0,1 @ F,0,0,1,0,2.1166666,0,1 @ F,0,0,1,0,2.3812501,0,1"
       radius="9"
       unit="px"
       method="auto"
       mode="F"
       chamfer_steps="1"
       flexible="false"
       use_knot_distance="true"
       apply_no_radius="true"
       apply_with_radius="true"
       only_selected="false"
       hide_knots="false" /><linearGradient
       id="swatch2"
       inkscape:swatch="solid"><stop
         style="stop-color:#000000;stop-opacity:1;"
         offset="0"
         id="stop2" /></linearGradient></defs><g
     inkscape:groupmode="layer"
     id="layer2"
     inkscape:label="Ebene 2"
     transform="translate(-62.458059,-100.1595)"><circle
       style="fill:none;fill-opacity:1;stroke:#000000;stroke-width:3.2;stroke-dasharray:none;stroke-opacity:1"
       id="path1"
       cx="138.15041"
       cy="141.17264"
       r="15.144912"
       inkscape:label="path1" /><path
       style="fill:none;stroke:#000000;stroke-width:3.2;stroke-linecap:round;stroke-linejoin:round;stroke-dasharray:none;stroke-opacity:1"
       d="m 140.93892,125.69028 v -12.24371 a 2.1166666,2.1166666 45 0 0 -2.11667,-2.11667 l -41.956729,0 a 2.1166666,2.1166666 135 0 0 -2.116667,2.11667 v 57.20538 a 2.1099575,2.1099575 44.909052 0 0 2.116656,2.10995 l 42.40089,-0.13461 a 2.1233971,2.1233971 134.90905 0 0 2.11666,-2.12339 v -7.50626"
       id="path6"
       inkscape:path-effect="#path-effect1"
       inkscape:original-d="M 140.93892,125.69028 V 111.3299 H 94.748854 v 61.43872 l 46.634206,-0.14805 v -9.62293" /><ellipse
       style="fill:none;stroke:#000000;stroke-width:3.2;stroke-linecap:butt;stroke-linejoin:round;stroke-dasharray:none;stroke-opacity:1"
       id="path8"
       cx="73.110992"
       cy="116.08376"
       rx="9.0529289"
       ry="14.324254" /><path
       style="display:inline;fill:none;stroke:#000000;stroke-width:3.2;stroke-linecap:butt;stroke-linejoin:round;stroke-miterlimit:16.5;stroke-dasharray:none;stroke-opacity:1"
       d="m 72.881804,130.75179 -0.07523,49.55669 c 0,0 -0.468038,9.62157 7.906988,9.6259 6.505242,0.003 28.609138,0.17712 28.609138,0.17712 0,0 7.88791,0.22444 8.56558,-8.33146 0.0309,-0.39033 0.0948,-7.64377 0.0782,-7.89044"
       id="path10"
       sodipodi:nodetypes="ccscsc" /><path
       style="baseline-shift:baseline;display:inline;overflow:visible;opacity:1;vector-effect:none;stroke-miterlimit:16.5;enable-background:accumulate;stop-color:#000000;stop-opacity:1"
       d="m 33.596636,32.678458 c -1.565945,0 -1.565945,1.6 -1.565945,1.6 0,0 0,1.6 1.565945,1.6 h 10.184508 c 0,0 2.485408,-1.6 2.485408,-1.6 0,0 -2.485408,-1.6 -2.485408,-1.6 z"
       id="path17"
       transform="matrix(0.6418407,0.60414519,-0.68540069,0.72816612,139.68294,95.601988)" /></g></svg>
