<?xml version="1.0" standalone="no"?>
<!DOCTYPE svg PUBLIC "-//W3C//DTD SVG 20010904//EN"
 "http://www.w3.org/TR/2001/REC-SVG-20010904/DTD/svg10.dtd">
<svg version="1.0" xmlns="http://www.w3.org/2000/svg"
 width="512.000000pt" height="512.000000pt" viewBox="0 0 512.000000 512.000000"
 preserveAspectRatio="xMidYMid meet">

<g transform="translate(0.000000,512.000000) scale(0.100000,-0.100000)"
fill="#000000" stroke="none">
<path d="M616 4994 c-187 -45 -355 -182 -441 -359 -69 -142 -65 -1 -65 -2080
0 -2096 -6 -1926 71 -2084 32 -65 59 -102 118 -160 85 -85 155 -130 263 -169
l73 -27 1930 0 1930 0 73 27 c106 39 177 83 257 163 80 80 124 151 163 257
l27 73 0 1915 0 1915 -31 86 c-72 202 -223 353 -426 427 l-73 27 -1905 2
c-1629 1 -1914 -1 -1964 -13z m3917 -236 c91 -44 172 -119 211 -196 59 -117
56 -2 56 -1994 0 -1305 -3 -1842 -11 -1880 -19 -89 -58 -158 -128 -229 -72
-72 -146 -113 -230 -129 -35 -6 -688 -10 -1880 -10 -2000 0 -1881 -3 -1995 58
-65 35 -143 113 -178 178 -61 114 -58 -6 -58 2004 0 2010 -3 1890 58 2004 35
65 113 143 178 178 112 60 -11 57 2029 55 l1870 -2 78 -37z"/>
<path d="M2390 4534 c-361 -32 -687 -122 -992 -275 -133 -66 -307 -171 -336
-202 -52 -55 -55 -43 223 -708 142 -338 267 -625 279 -637 32 -36 93 -26 178
26 164 101 344 173 532 214 146 32 436 32 582 0 192 -42 376 -116 538 -217 40
-25 82 -45 93 -45 11 0 35 10 53 23 29 20 59 83 291 632 156 369 259 623 259
643 0 44 -43 88 -155 155 -320 193 -654 314 -1010 368 -125 19 -434 32 -535
23z m391 -215 c263 -26 552 -107 786 -219 164 -78 285 -149 280 -164 -39 -94
-408 -971 -411 -973 -1 -2 -55 22 -119 52 -192 91 -396 151 -579 170 l-68 7 0
411 c0 470 0 470 -75 496 -35 12 -45 11 -78 -2 -66 -28 -67 -33 -67 -496 l0
-410 -47 -6 c-219 -29 -425 -88 -608 -174 -59 -28 -110 -50 -111 -48 -3 2
-372 879 -411 973 -5 14 116 86 277 163 225 107 534 195 775 220 118 12 338
12 456 0z"/>
</g>
</svg>
